<?xml version="1.0" encoding="utf-8"?>
<!-- Generator: Adobe Illustrator 19.1.0, SVG Export Plug-In . SVG Version: 6.00 Build 0)  -->
<svg version="1.1" xmlns="http://www.w3.org/2000/svg" xmlns:xlink="http://www.w3.org/1999/xlink" x="0px" y="0px"
	 viewBox="0 0 30 30" style="enable-background:new 0 0 30 30;" xml:space="preserve">
<style type="text/css">
	.st0{fill:#FFFFFF;}
	.st1{fill:#5C546A;}
	.st2{fill:#FF4F19;}
	.st3{fill:#FF8C62;}
	.st4{fill:#FF9100;}
	.st5{fill:#FFCD00;}
	.st6{fill:#FFE671;}
	.st7{fill:#00C37A;}
	.st8{fill:#60DC4D;}
	.st9{fill:#4CD7FF;}
	.st10{fill:#AEEFFF;}
	.st11{fill:#868491;}
	.st12{fill:#B4B6BC;}
</style>
<g id="Layer_1">
	<g>
		<path class="st0" d="M15.6,23.2c-2.7,0-5.1-1.4-6.5-3.7c-1,0-1.8-0.8-1.8-1.9c0-0.6,0.3-1.1,0.7-1.5c0-0.2,0-0.4,0-0.7
			c0-1.6,0.5-3.1,1.4-4.4c0-0.1,0-0.2,0-0.3c0-0.9,0.7-1.6,1.6-1.6c0.1,0,0.2,0,0.3,0c1.3-0.9,2.8-1.4,4.4-1.4c1,0,1.9,0.2,2.8,0.5
			c0.4-0.8,1.2-1.2,2.1-1.2c1.3,0,2.3,1,2.3,2.3c0,0.7-0.3,1.3-0.8,1.8c0.9,1.3,1.3,2.7,1.3,4.3c0,1.5-0.4,2.9-1.2,4.2
			c0.5,0.3,0.8,0.8,0.8,1.4c0,0.9-0.7,1.6-1.6,1.6c-0.6,0-1.1-0.3-1.4-0.8C18.5,22.8,17.1,23.2,15.6,23.2z"/>
		<path class="st0" d="M20.5,7.7c1,0,1.8,0.8,1.8,1.8c0,0.7-0.4,1.4-1.1,1.6c0.9,1.2,1.5,2.7,1.5,4.4c0,1.7-0.6,3.2-1.5,4.4
			c0.6,0,1.1,0.5,1.1,1.1c0,0.6-0.5,1.1-1.1,1.1c-0.6,0-1.1-0.5-1.1-1.1c-1.2,1-2.8,1.5-4.4,1.5c-2.7,0-5-1.5-6.3-3.7
			c-0.1,0-0.2,0-0.2,0c-0.8,0-1.4-0.6-1.4-1.4c0-0.5,0.3-1,0.8-1.2c0-0.3-0.1-0.6-0.1-0.9c0-1.6,0.5-3.1,1.4-4.3
			c0-0.1-0.1-0.3-0.1-0.4c0-0.6,0.5-1.1,1.1-1.1c0.1,0,0.3,0,0.4,0.1C12.5,9,14,8.4,15.6,8.4c1.1,0,2.2,0.3,3.1,0.7
			C18.9,8.3,19.6,7.7,20.5,7.7 M20.5,6.7c-0.9,0-1.7,0.4-2.3,1.1c-0.8-0.3-1.7-0.4-2.6-0.4c-1.6,0-3.2,0.5-4.5,1.4
			c-0.1,0-0.1,0-0.2,0c-1.2,0-2.1,1-2.1,2.1c0,0.1,0,0.1,0,0.2c-0.9,1.3-1.4,2.9-1.4,4.5c0,0.1,0,0.3,0,0.5c-0.4,0.4-0.7,1-0.7,1.7
			c0,1.2,0.9,2.2,2,2.3c1.5,2.3,4.1,3.7,6.8,3.7c1.4,0,2.8-0.4,4.1-1.1c0.4,0.4,0.9,0.6,1.5,0.6c1.2,0,2.1-1,2.1-2.1
			c0-0.6-0.2-1.1-0.6-1.5c0.7-1.2,1.1-2.6,1.1-4.1c0-1.5-0.4-2.9-1.2-4.2c0.4-0.5,0.7-1.2,0.7-1.8C23.3,8,22,6.7,20.5,6.7L20.5,6.7z
			"/>
	</g>
</g>
<g id="Layer_1_copy">
	<g>
		<g>
			<g>
				<path class="st1" d="M10.1,17.5c-0.1,0-0.2,0-0.2-0.1c-0.1-0.1,0-0.2,0.1-0.3l3-1.4c0.1-0.1,0.2,0,0.3,0.1
					c0.1,0.1,0,0.2-0.1,0.3L10.1,17.5C10.2,17.5,10.2,17.5,10.1,17.5z"/>
			</g>
		</g>
		<g>
			<g>
				<path class="st1" d="M13.6,13.8c-0.1,0-0.1,0-0.2-0.1l-2-2c-0.1-0.1-0.1-0.2,0-0.3c0.1-0.1,0.2-0.1,0.3,0l2,2
					c0.1,0.1,0.1,0.2,0,0.3C13.7,13.8,13.6,13.8,13.6,13.8z"/>
			</g>
		</g>
		<g>
			<g>
				<path class="st1" d="M16.5,13.8c-0.1,0-0.1,0-0.2-0.1c-0.1-0.1-0.1-0.2,0-0.3l2.9-2.9c0.1-0.1,0.2-0.1,0.3,0
					c0.1,0.1,0.1,0.2,0,0.3l-2.9,2.9C16.6,13.8,16.5,13.8,16.5,13.8z"/>
			</g>
		</g>
		<g>
			<g>
				<path class="st1" d="M20.5,20.7c-0.1,0-0.1,0-0.2-0.1l-4.1-4.1c-0.1-0.1-0.1-0.2,0-0.3s0.2-0.1,0.3,0l4.1,4.1
					c0.1,0.1,0.1,0.2,0,0.3C20.6,20.7,20.6,20.7,20.5,20.7z"/>
			</g>
		</g>
		<g>
			<g>
				<path class="st1" d="M15.4,19.3c-0.1,0-0.2-0.1-0.2-0.2L15,17.1c0-0.1,0.1-0.2,0.2-0.2c0.1,0,0.2,0.1,0.2,0.2l0.2,2.1
					C15.6,19.2,15.5,19.3,15.4,19.3C15.4,19.3,15.4,19.3,15.4,19.3z"/>
			</g>
		</g>
		<g>
			<circle class="st2" cx="15" cy="15" r="2.3"/>
		</g>
		<g>
			<circle class="st3" cx="15.6" cy="14.4" r="0.8"/>
		</g>
		<g>
			<circle class="st4" cx="9.1" cy="17.7" r="1.4"/>
		</g>
		<g>
			<circle class="st5" cx="9.4" cy="17.4" r="0.5"/>
		</g>
		<g>
			<circle class="st5" cx="20.5" cy="9.5" r="1.8"/>
		</g>
		<g>
			<circle class="st6" cx="20.9" cy="9.1" r="0.6"/>
		</g>
		<g>
			<circle class="st7" cx="10.9" cy="10.9" r="1.1"/>
		</g>
		<g>
			<circle class="st8" cx="11.2" cy="10.6" r="0.4"/>
		</g>
		<g>
			<circle class="st9" cx="21.1" cy="21.1" r="1.1"/>
		</g>
		<g>
			<circle class="st10" cx="21.4" cy="20.9" r="0.4"/>
		</g>
		<g>
			<circle class="st11" cx="15.5" cy="20" r="1.1"/>
		</g>
		<g>
			<circle class="st12" cx="15.7" cy="19.7" r="0.4"/>
		</g>
	</g>
</g>
</svg>
